<svg preserveAspectRatio="xMidYMid meet" data-bbox="2.781 6.25 181.364 16.59" height="40" viewBox="2.781 6.25 181.364 16.59" width="250" xmlns="http://www.w3.org/2000/svg" data-type="color" role="presentation" aria-hidden="true" aria-label=""><defs><style>#comp-lvaypw08_r_comp-luv7vycw svg [data-color="1"] {fill: #5271FF;}</style></defs>
    <g>
        <defs>
            <clipPath id="a58a62d6-8d16-4272-8049-054a0561e107_comp-lvaypw08_r_comp-luv7vycw">
                <path d="M41 6h11v17H41Zm0 0"></path>
            </clipPath>
            <clipPath id="e91176a4-c8f1-4961-8220-2f6d66d9a625_comp-lvaypw08_r_comp-luv7vycw">
                <path d="M49.027 22.836v-6.223l-7.636-10.36h2.687l7.254 9.243v7.34Zm0 0"></path>
            </clipPath>
            <clipPath id="c5af7ea3-406b-4d84-96e7-72bfc245a29b_comp-lvaypw08_r_comp-luv7vycw">
                <path d="M41 6h11v17H41Zm0 0"></path>
            </clipPath>
            <clipPath id="eb9f9962-cab9-40ec-bc76-0512a25b0ae4_comp-lvaypw08_r_comp-luv7vycw">
                <path d="M51.086 15.578v7.008h-1.813V16.53L41.88 6.5h2.078Zm0 0"></path>
            </clipPath>
            <clipPath id="95d08c48-125f-4a32-8daa-8c5a5eb59eb5_comp-lvaypw08_r_comp-luv7vycw">
                <path d="M2.781 9H19v7H2.781Zm0 0"></path>
            </clipPath>
            <clipPath id="98b9caf0-41bd-4d92-9425-0d36c4974883_comp-lvaypw08_r_comp-luv7vycw">
                <path d="M15.965 15.71H5.235a2.773 2.773 0 0 1-1.477-.401 2.956 2.956 0 0 1-1.059-1.059 2.807 2.807 0 0 1-.39-1.469v-2.91h2.304v2.906a.528.528 0 0 0 .172.426c.125.121.274.18.445.176h10.735a2.764 2.764 0 0 1 1.476.402c.446.266.797.617 1.059 1.063.102.172.184.351.242.543l.106.32Zm0 0"></path>
            </clipPath>
            <clipPath id="67b74450-37b1-4e38-a03c-c63e73c3c61a_comp-lvaypw08_r_comp-luv7vycw">
                <path d="M2.781 10H19v6H2.781Zm0 0"></path>
            </clipPath>
            <clipPath id="b8f00ef2-f0e7-4c45-a9e2-817e03b150a4_comp-lvaypw08_r_comp-luv7vycw">
                <path d="M18.285 14.977c.094.156.164.32.219.492H5.234a2.506 2.506 0 0 1-1.351-.367 2.678 2.678 0 0 1-.969-.97 2.547 2.547 0 0 1-.36-1.355v-2.66h1.813v2.66a.758.758 0 0 0 .254.606.856.856 0 0 0 .613.246h10.73a2.54 2.54 0 0 1 1.352.367c.407.242.73.57.97.98Zm0 0"></path>
            </clipPath>
            <clipPath id="fc4d1682-4105-4bef-97dc-9fad41fe1b54_comp-lvaypw08_r_comp-luv7vycw">
                <path d="M2.781 6H19v5H2.781Zm0 0"></path>
            </clipPath>
            <clipPath id="1258d6fd-0711-4ee2-b9c2-42d6ad0d24cc_comp-lvaypw08_r_comp-luv7vycw">
                <path d="M16.586 10.055v-.871a.562.562 0 0 0-.184-.438.558.558 0 0 0-.437-.187H2.348l.113-.329a2.83 2.83 0 0 1 .238-.523 2.844 2.844 0 0 1 1.074-1.066 2.828 2.828 0 0 1 1.461-.383h10.73a2.84 2.84 0 0 1 1.122.219 2.896 2.896 0 0 1 1.809 2.71v.872Zm0 0"></path>
            </clipPath>
            <clipPath id="1699f11b-ef40-48fe-9cf2-da157c8f46a3_comp-lvaypw08_r_comp-luv7vycw">
                <path d="M2.781 6H19v4H2.781Zm0 0"></path>
            </clipPath>
            <clipPath id="e67a9f29-c743-48e1-933b-95766b0d1689_comp-lvaypw08_r_comp-luv7vycw">
                <path d="M18.645 9.184v.625h-1.81v-.625a.838.838 0 0 0-.257-.618.84.84 0 0 0-.613-.254H2.695c.09-.265.215-.511.383-.734a2.71 2.71 0 0 1 .594-.582c.23-.16.476-.285.742-.371.27-.082.543-.125.82-.121h10.73c.356-.004.7.062 1.028.2.332.136.621.327.871.581.254.25.45.543.582.871.137.328.203.672.2 1.028Zm0 0"></path>
            </clipPath>
            <clipPath id="e0cf6d82-723d-44e9-b727-7311ffea8a7d_comp-lvaypw08_r_comp-luv7vycw">
                <path d="M51 6h8v9h-8Zm0 0"></path>
            </clipPath>
            <clipPath id="8f19bfd1-585a-4a14-a0d7-bb67b580e3d9_comp-lvaypw08_r_comp-luv7vycw">
                <path d="m51.066 12.844 5.172-6.59h2.735l-6.328 8.582Zm0 0"></path>
            </clipPath>
            <clipPath id="340ad786-ed2f-43d8-9cd0-1ac8f4ecc80d_comp-lvaypw08_r_comp-luv7vycw">
                <path d="M51 6h8v9h-8Zm0 0"></path>
            </clipPath>
            <clipPath id="405ec576-cfc8-486b-9ff5-f7adba5b61a8_comp-lvaypw08_r_comp-luv7vycw">
                <path d="m51.383 12.844 1.254 1.582L58.48 6.5h-2.12Zm0 0"></path>
            </clipPath>
            <clipPath id="b6af638d-4645-4921-a73d-d81d6654e6fb_comp-lvaypw08_r_comp-luv7vycw">
                <path d="M2.781 17H19v6H2.781Zm0 0"></path>
            </clipPath>
            <clipPath id="0219dd88-6be3-4f06-9313-9613526b6428_comp-lvaypw08_r_comp-luv7vycw">
                <path d="M5.238 22.836a2.915 2.915 0 0 1-2.93-2.93v-.87h2.305v.87c0 .172.063.32.184.442.121.12.27.183.441.183h10.727a.612.612 0 0 0 .437-.183.611.611 0 0 0 .184-.442v-2.883h2.305v2.883a2.91 2.91 0 0 1-.852 2.074 2.896 2.896 0 0 1-2.074.856Zm0 0"></path>
            </clipPath>
            <clipPath id="339579b2-6e41-4963-b764-f5a4d952f0c5_comp-lvaypw08_r_comp-luv7vycw">
                <path d="M2.781 17H19v6H2.781Zm0 0"></path>
            </clipPath>
            <clipPath id="2ef1893e-1a32-4196-8a1f-5e8ca01361a9_comp-lvaypw08_r_comp-luv7vycw">
                <path d="M16.836 17.273v2.633a.844.844 0 0 1-.258.617.84.84 0 0 1-.613.254H5.238a.86.86 0 0 1-.613-.257.86.86 0 0 1-.258-.614v-.625H2.555v.625c-.004.356.062.7.199 1.028a2.63 2.63 0 0 0 1.453 1.457c.328.132.672.199 1.027.195h10.73a2.64 2.64 0 0 0 2.481-1.652 2.59 2.59 0 0 0 .2-1.028v-2.633Zm0 0"></path>
            </clipPath>
            <clipPath id="acea04ce-60bf-42c5-8dd6-7e5887391779_comp-lvaypw08_r_comp-luv7vycw">
                <path d="M22 6h17v17H22Zm0 0"></path>
            </clipPath>
            <clipPath id="c78a90be-3003-47f5-b370-abb4a111b1b1_comp-lvaypw08_r_comp-luv7vycw">
                <path d="M24.555 22.836h-1.957V6.254h2.324V19.12L35.73 6.254h2.688v.336l-.055.094-6.593 7.863 6.671 7.93v.335l-.246.024H35.73l-5.46-6.504-5.348 6.375-.106.129Zm0 0"></path>
            </clipPath>
            <clipPath id="45cc9b93-b765-4eb8-83a7-05efadb6a9e1_comp-lvaypw08_r_comp-luv7vycw">
                <path d="M22 6h17v17H22Zm0 0"></path>
            </clipPath>
            <clipPath id="aa751d61-43d8-4a9d-9749-a200c8ae9c40_comp-lvaypw08_r_comp-luv7vycw">
                <path d="M38.172 6.523V6.5h-2.324L24.676 19.797V6.5h-1.832v16.086h1.832v-.047l.027.047 5.567-6.637 5.578 6.637h2.347v-.02l-6.75-8.02Zm0 0"></path>
            </clipPath>
            <clipPath id="7bbf0edc-0d8b-48a2-906d-3c3bbf769828_comp-lvaypw08_r_comp-luv7vycw">
                <path d="M69.875 6.254h15.176v2.305H69.875Zm0 2.305h2.305v4.82h-2.305Zm0 4.82h12.648v2.328H69.875Zm0 2.328h2.305v7.129h-2.305Zm0 0"></path>
            </clipPath>
            <clipPath id="953d6def-f067-4516-9811-b3e73a57b4c0_comp-lvaypw08_r_comp-luv7vycw">
                <path d="M70.121 6.5h14.68v1.813H70.12Zm0 1.813h1.813v5.316H70.12Zm0 5.316h12.156v1.832H70.121Zm0 1.832h1.813v7.125H70.12Zm0 0"></path>
            </clipPath>
            <clipPath id="b3665944-6690-4481-ad27-451bd4bcd18e_comp-lvaypw08_r_comp-luv7vycw">
                <path d="M167 6h17.234v17H167Zm0 0"></path>
            </clipPath>
            <clipPath id="92f2f3db-d997-48e6-9876-7fb275170de3_comp-lvaypw08_r_comp-luv7vycw">
                <path d="M167.559 22.836V6.254h13.656a2.84 2.84 0 0 1 1.12.219c.364.144.68.355.954.632a2.873 2.873 0 0 1 .852 2.074v10.727a2.84 2.84 0 0 1-.22 1.121c-.144.364-.358.68-.632.953a2.91 2.91 0 0 1-2.074.855Zm2.93-14.281a.57.57 0 0 0-.442.183.584.584 0 0 0-.184.442v10.726a.627.627 0 0 0 .625.625h10.727a.612.612 0 0 0 .437-.183.611.611 0 0 0 .184-.442V9.18a.602.602 0 0 0-.184-.438.596.596 0 0 0-.437-.183Zm0 0"></path>
            </clipPath>
            <clipPath id="75d677a2-c506-48c6-af2f-cd0ae1a2de90_comp-lvaypw08_r_comp-luv7vycw">
                <path d="M167 6h17v17h-17Zm0 0"></path>
            </clipPath>
            <clipPath id="ab44b27a-623c-4fb7-abcb-31e3e64fa0c5_comp-lvaypw08_r_comp-luv7vycw">
                <path d="M183.535 7.836a2.614 2.614 0 0 0-.98-.977 2.604 2.604 0 0 0-1.34-.351h-13.41v16.078h13.41a2.64 2.64 0 0 0 2.48-1.652 2.59 2.59 0 0 0 .2-1.028V9.18a2.588 2.588 0 0 0-.36-1.344Zm-1.45 12.078a.83.83 0 0 1-.257.613.83.83 0 0 1-.613.258h-10.727a.86.86 0 0 1-.613-.258.85.85 0 0 1-.258-.613V9.18a.84.84 0 0 1 .254-.614.834.834 0 0 1 .617-.254h10.727c.238 0 .445.083.613.254a.83.83 0 0 1 .258.614Zm0 0"></path>
            </clipPath>
            <clipPath id="57b84c7e-a93d-4e69-acf0-d213ee3dc2e9_comp-lvaypw08_r_comp-luv7vycw">
                <path d="M128 6h17v7h-17Zm0 0"></path>
            </clipPath>
            <clipPath id="0cfb0ccc-1275-496c-bd7c-c328206eeead_comp-lvaypw08_r_comp-luv7vycw">
                <path d="M128.281 12.043v-2.86a2.896 2.896 0 0 1 .852-2.078 2.84 2.84 0 0 1 .953-.632 2.84 2.84 0 0 1 1.121-.22h10.727a2.896 2.896 0 0 1 2.078.852 2.905 2.905 0 0 1 .847 2.079v.894h-2.3v-.894a.605.605 0 0 0-.184-.442.605.605 0 0 0-.441-.183h-10.727a.596.596 0 0 0-.437.183.624.624 0 0 0-.188.442v2.859Zm0 0"></path>
            </clipPath>
            <clipPath id="158d1830-e8db-4df1-8fff-51c557a9342a_comp-lvaypw08_r_comp-luv7vycw">
                <path d="M128 6h17v6h-17Zm0 0"></path>
            </clipPath>
            <clipPath id="d824cc5b-57b8-40f9-8a97-df23b14a7f42_comp-lvaypw08_r_comp-luv7vycw">
                <path d="M130.336 11.797h-1.809V9.184c0-.356.063-.7.2-1.028a2.64 2.64 0 0 1 1.453-1.453 2.575 2.575 0 0 1 1.027-.2h10.727c.355-.003.699.063 1.027.2a2.63 2.63 0 0 1 1.457 1.453c.133.328.2.672.195 1.028v.648h-1.808v-.648a.834.834 0 0 0-.254-.618.85.85 0 0 0-.617-.254H131.21a.85.85 0 0 0-.617.254.85.85 0 0 0-.254.618Zm0 0"></path>
            </clipPath>
            <clipPath id="630a59d1-097e-4abf-8aec-4d4b72b49ccf_comp-lvaypw08_r_comp-luv7vycw">
                <path d="M128 6h36v17h-36Zm0 0"></path>
            </clipPath>
            <clipPath id="832e61b9-469e-4223-bf76-b4b0c35f6b5d_comp-lvaypw08_r_comp-luv7vycw">
                <path d="M131.207 22.836a2.84 2.84 0 0 1-1.121-.219 2.905 2.905 0 0 1-1.805-2.71v-6.528h2.301v6.527c0 .176.063.32.188.442a.568.568 0 0 0 .437.183h10.727c.171 0 .32-.062.441-.183a.605.605 0 0 0 .184-.442v-4.199h-6.739v-2.328h12.836V6.254h15.176v2.305h-12.867v4.82h10.34v2.328h-16.446v4.2a2.878 2.878 0 0 1-1.46 2.542 2.913 2.913 0 0 1-1.465.387Zm0 0"></path>
            </clipPath>
            <clipPath id="d08fe526-9871-4552-aa1d-87a7d48ed86b_comp-lvaypw08_r_comp-luv7vycw">
                <path d="M128 6h36v17h-36Zm0 0"></path>
            </clipPath>
            <clipPath id="e3c84e22-8a76-49be-9fd5-15ec2894fd1d_comp-lvaypw08_r_comp-luv7vycw">
                <path d="M150.715 8.313v5.316h10.344v1.832h-16.446v4.445c.008.485-.11.934-.347 1.352a2.597 2.597 0 0 1-.985.976c-.414.239-.86.356-1.34.352H131.22a2.565 2.565 0 0 1-1.352-.356 2.597 2.597 0 0 1-.98-.98 2.577 2.577 0 0 1-.348-1.344V13.63h1.805v6.277c0 .242.086.446.258.617a.84.84 0 0 0 .613.254h10.726a.84.84 0 0 0 .614-.254.838.838 0 0 0 .257-.617v-4.445h-6.738V13.63h12.836V6.5h14.68v1.813Zm0 0"></path>
            </clipPath>
            <clipPath id="3976af45-c106-4bee-b93c-f25ae318216b_comp-lvaypw08_r_comp-luv7vycw">
                <path d="M87 6h38v17H87Zm0 0"></path>
            </clipPath>
            <clipPath id="46e84541-2c5e-4783-b239-b47488aa19ea_comp-lvaypw08_r_comp-luv7vycw">
                <path d="m121.773 22.836-5.023-5.988h-6.387v5.988h-2.304V14.52h13.652a.586.586 0 0 0 .445-.176.523.523 0 0 0 .176-.422V9.203a.576.576 0 0 0-.184-.441.59.59 0 0 0-.441-.184l-31.059-.02a.602.602 0 0 0-.437.184.602.602 0 0 0-.184.438v10.726c0 .172.063.317.184.442.121.12.266.18.437.183h10.727a.62.62 0 0 0 .441-.183.611.611 0 0 0 .184-.442V9.895h2.305v10.011a2.882 2.882 0 0 1-.39 1.477 2.844 2.844 0 0 1-1.075 1.066 2.874 2.874 0 0 1-1.465.387H90.656c-.39.004-.765-.07-1.125-.219a2.946 2.946 0 0 1-.953-.633 2.93 2.93 0 0 1-.852-2.078V9.18a2.91 2.91 0 0 1 .852-2.075 2.82 2.82 0 0 1 .953-.632c.36-.149.735-.223 1.125-.22l31.059.017a2.764 2.764 0 0 1 1.476.402c.446.262.797.617 1.055 1.058.27.454.399.946.39 1.473v4.719a2.77 2.77 0 0 1-.394 1.465 2.966 2.966 0 0 1-1.055 1.054 2.79 2.79 0 0 1-1.48.407h-1.937l4.761 5.625v.34l-.25.023Zm0 0"></path>
            </clipPath>
            <clipPath id="ab47d09e-c314-4881-87f4-6ba01f11890d_comp-lvaypw08_r_comp-luv7vycw">
                <path d="M87 6h38v17H87Zm0 0"></path>
            </clipPath>
            <clipPath id="8a9ab5de-2999-460d-b7e6-ced8b1eb91be_comp-lvaypw08_r_comp-luv7vycw">
                <path d="M123.07 6.89a2.545 2.545 0 0 0-1.355-.367L90.66 6.5c-.36 0-.7.066-1.031.2a2.624 2.624 0 0 0-.871.581 2.624 2.624 0 0 0-.778 1.899v10.726a2.64 2.64 0 0 0 .778 1.903c.25.25.543.445.87.582.333.132.673.199 1.032.195h10.727a2.64 2.64 0 0 0 2.48-1.652c.137-.329.2-.672.2-1.028v-9.761h-1.813v9.761a.86.86 0 0 1-.258.614.867.867 0 0 1-.613.257H90.656a.85.85 0 0 1-.617-.254.856.856 0 0 1-.254-.617V9.18a.84.84 0 0 1 .254-.614.834.834 0 0 1 .617-.254l31.055.02c.242 0 .45.082.617.258a.795.795 0 0 1 .258.613v4.719a.77.77 0 0 1-.258.601.839.839 0 0 1-.617.243H108.3v7.82h1.812v-5.984h6.746l5.028 5.984h2.402v-.02l-5.05-5.964h2.472c.488.003.941-.122 1.36-.372.406-.242.73-.562.968-.972.246-.41.363-.86.36-1.336V9.203a2.528 2.528 0 0 0-.36-1.34 2.72 2.72 0 0 0-.969-.972Zm0 0"></path>
            </clipPath>
            <clipPath id="6752e659-e655-48b0-b03f-b4bf1e54b255_comp-lvaypw08_r_comp-luv7vycw">
                <path d="M148.656 20.531h15.176v2.305h-15.176Zm0 0"></path>
            </clipPath>
            <clipPath id="837ef725-bfce-4c7e-9c97-d507ca962e2b_comp-lvaypw08_r_comp-luv7vycw">
                <path d="M148.906 20.777h14.68v1.809h-14.68Zm0 0"></path>
            </clipPath>
        </defs>
        <g clip-path="url(#a58a62d6-8d16-4272-8049-054a0561e107_comp-lvaypw08_r_comp-luv7vycw)">
            <g clip-path="url(#e91176a4-c8f1-4961-8220-2f6d66d9a625_comp-lvaypw08_r_comp-luv7vycw)">
                <path d="M41.39 6.254v16.582h9.942V6.254Zm0 0" fill="#ffffff" data-color="1"></path>
            </g>
        </g>
        <g clip-path="url(#c5af7ea3-406b-4d84-96e7-72bfc245a29b_comp-lvaypw08_r_comp-luv7vycw)">
            <g clip-path="url(#eb9f9962-cab9-40ec-bc76-0512a25b0ae4_comp-lvaypw08_r_comp-luv7vycw)">
                <path d="M41.879 6.5v16.086h9.207V6.5Zm0 0" fill="#ffffff" data-color="1"></path>
            </g>
        </g>
        <g clip-path="url(#95d08c48-125f-4a32-8daa-8c5a5eb59eb5_comp-lvaypw08_r_comp-luv7vycw)">
            <g clip-path="url(#98b9caf0-41bd-4d92-9425-0d36c4974883_comp-lvaypw08_r_comp-luv7vycw)">
                <path d="M2.781 9.871v5.844h16.067V9.87Zm0 0" fill="#ffffff" data-color="1"></path>
            </g>
        </g>
        <g clip-path="url(#67b74450-37b1-4e38-a03c-c63e73c3c61a_comp-lvaypw08_r_comp-luv7vycw)">
            <g clip-path="url(#b8f00ef2-f0e7-4c45-a9e2-817e03b150a4_comp-lvaypw08_r_comp-luv7vycw)">
                <path d="M2.781 10.117v5.36h15.723v-5.36Zm0 0" fill="#ffffff" data-color="1"></path>
            </g>
        </g>
        <g clip-path="url(#fc4d1682-4105-4bef-97dc-9fad41fe1b54_comp-lvaypw08_r_comp-luv7vycw)">
            <g clip-path="url(#1258d6fd-0711-4ee2-b9c2-42d6ad0d24cc_comp-lvaypw08_r_comp-luv7vycw)">
                <path d="M2.781 6.254v3.805h16.114V6.254Zm0 0" fill="#ffffff" data-color="1"></path>
            </g>
        </g>
        <g clip-path="url(#1699f11b-ef40-48fe-9cf2-da157c8f46a3_comp-lvaypw08_r_comp-luv7vycw)">
            <g clip-path="url(#e67a9f29-c743-48e1-933b-95766b0d1689_comp-lvaypw08_r_comp-luv7vycw)">
                <path d="M2.781 6.5v3.309h15.867V6.5Zm0 0" fill="#ffffff" data-color="1"></path>
            </g>
        </g>
        <g clip-path="url(#e0cf6d82-723d-44e9-b727-7311ffea8a7d_comp-lvaypw08_r_comp-luv7vycw)">
            <g clip-path="url(#8f19bfd1-585a-4a14-a0d7-bb67b580e3d9_comp-lvaypw08_r_comp-luv7vycw)">
                <path d="M51.066 6.254v8.582h7.907V6.254Zm0 0" fill="#ffffff" data-color="1"></path>
            </g>
        </g>
        <g clip-path="url(#340ad786-ed2f-43d8-9cd0-1ac8f4ecc80d_comp-lvaypw08_r_comp-luv7vycw)">
            <g clip-path="url(#405ec576-cfc8-486b-9ff5-f7adba5b61a8_comp-lvaypw08_r_comp-luv7vycw)">
                <path d="M51.383 6.5v7.926h7.097V6.5Zm0 0" fill="#ffffff" data-color="1"></path>
            </g>
        </g>
        <g clip-path="url(#b6af638d-4645-4921-a73d-d81d6654e6fb_comp-lvaypw08_r_comp-luv7vycw)">
            <g clip-path="url(#0219dd88-6be3-4f06-9313-9613526b6428_comp-lvaypw08_r_comp-luv7vycw)">
                <path d="M2.781 17.023v5.813h16.11v-5.813Zm0 0" fill="#ffffff" data-color="1"></path>
            </g>
        </g>
        <g clip-path="url(#339579b2-6e41-4963-b764-f5a4d952f0c5_comp-lvaypw08_r_comp-luv7vycw)">
            <g clip-path="url(#2ef1893e-1a32-4196-8a1f-5e8ca01361a9_comp-lvaypw08_r_comp-luv7vycw)">
                <path d="M2.781 17.273v5.317h15.867v-5.317Zm0 0" fill="#ffffff" data-color="1"></path>
            </g>
        </g>
        <g clip-path="url(#acea04ce-60bf-42c5-8dd6-7e5887391779_comp-lvaypw08_r_comp-luv7vycw)">
            <g clip-path="url(#c78a90be-3003-47f5-b370-abb4a111b1b1_comp-lvaypw08_r_comp-luv7vycw)">
                <path d="M22.598 6.254v16.582H38.44V6.254Zm0 0" fill="#ffffff" data-color="1"></path>
            </g>
        </g>
        <g clip-path="url(#45cc9b93-b765-4eb8-83a7-05efadb6a9e1_comp-lvaypw08_r_comp-luv7vycw)">
            <g clip-path="url(#aa751d61-43d8-4a9d-9749-a200c8ae9c40_comp-lvaypw08_r_comp-luv7vycw)">
                <path d="M22.844 6.5v16.086h15.351V6.5Zm0 0" fill="#ffffff" data-color="1"></path>
            </g>
        </g>
        <g clip-path="url(#7bbf0edc-0d8b-48a2-906d-3c3bbf769828_comp-lvaypw08_r_comp-luv7vycw)">
            <path d="M69.875 6.254v16.582h15.176V6.254Zm0 0" fill="#ffffff" data-color="1"></path>
        </g>
        <g clip-path="url(#953d6def-f067-4516-9811-b3e73a57b4c0_comp-lvaypw08_r_comp-luv7vycw)">
            <path d="M70.121 6.5v16.086h14.68V6.5Zm0 0" fill="#ffffff" data-color="1"></path>
        </g>
        <g clip-path="url(#b3665944-6690-4481-ad27-451bd4bcd18e_comp-lvaypw08_r_comp-luv7vycw)">
            <g clip-path="url(#92f2f3db-d997-48e6-9876-7fb275170de3_comp-lvaypw08_r_comp-luv7vycw)">
                <path d="M167.559 6.25v16.586h16.586V6.25Zm0 0" fill="#ffffff" data-color="1"></path>
            </g>
        </g>
        <g clip-path="url(#75d677a2-c506-48c6-af2f-cd0ae1a2de90_comp-lvaypw08_r_comp-luv7vycw)">
            <g clip-path="url(#ab44b27a-623c-4fb7-abcb-31e3e64fa0c5_comp-lvaypw08_r_comp-luv7vycw)">
                <path d="M167.805 6.504V22.59h16.093V6.504Zm0 0" fill="#ffffff" data-color="1"></path>
            </g>
        </g>
        <g clip-path="url(#57b84c7e-a93d-4e69-acf0-d213ee3dc2e9_comp-lvaypw08_r_comp-luv7vycw)">
            <g clip-path="url(#0cfb0ccc-1275-496c-bd7c-c328206eeead_comp-lvaypw08_r_comp-luv7vycw)">
                <path d="M128.277 6.25v5.793h16.586V6.25Zm0 0" fill="#ffffff" data-color="1"></path>
            </g>
        </g>
        <g clip-path="url(#158d1830-e8db-4df1-8fff-51c557a9342a_comp-lvaypw08_r_comp-luv7vycw)">
            <g clip-path="url(#d824cc5b-57b8-40f9-8a97-df23b14a7f42_comp-lvaypw08_r_comp-luv7vycw)">
                <path d="M128.527 6.5v5.297h16.09V6.5Zm0 0" fill="#ffffff" data-color="1"></path>
            </g>
        </g>
        <g clip-path="url(#630a59d1-097e-4abf-8aec-4d4b72b49ccf_comp-lvaypw08_r_comp-luv7vycw)">
            <g clip-path="url(#832e61b9-469e-4223-bf76-b4b0c35f6b5d_comp-lvaypw08_r_comp-luv7vycw)">
                <path d="M128.277 6.254V22.84h35.555V6.254Zm0 0" fill="#ffffff" data-color="1"></path>
            </g>
        </g>
        <g clip-path="url(#d08fe526-9871-4552-aa1d-87a7d48ed86b_comp-lvaypw08_r_comp-luv7vycw)">
            <g clip-path="url(#e3c84e22-8a76-49be-9fd5-15ec2894fd1d_comp-lvaypw08_r_comp-luv7vycw)">
                <path d="M128.531 6.5v16.094h35.059V6.5Zm0 0" fill="#ffffff" data-color="1"></path>
            </g>
        </g>
        <g clip-path="url(#3976af45-c106-4bee-b93c-f25ae318216b_comp-lvaypw08_r_comp-luv7vycw)">
            <g clip-path="url(#46e84541-2c5e-4783-b239-b47488aa19ea_comp-lvaypw08_r_comp-luv7vycw)">
                <path d="M87.727 6.25v16.59h36.918V6.25Zm0 0" fill="#ffffff" data-color="1"></path>
            </g>
        </g>
        <g clip-path="url(#ab47d09e-c314-4881-87f4-6ba01f11890d_comp-lvaypw08_r_comp-luv7vycw)">
            <g clip-path="url(#8a9ab5de-2999-460d-b7e6-ced8b1eb91be_comp-lvaypw08_r_comp-luv7vycw)">
                <path d="M87.977 6.5v16.09h36.425V6.5Zm0 0" fill="#ffffff" data-color="1"></path>
            </g>
        </g>
        <g clip-path="url(#6752e659-e655-48b0-b03f-b4bf1e54b255_comp-lvaypw08_r_comp-luv7vycw)">
            <path d="M148.656 20.531v2.305h15.176V20.53Zm0 0" fill="#ffffff" data-color="1"></path>
        </g>
        <g clip-path="url(#837ef725-bfce-4c7e-9c97-d507ca962e2b_comp-lvaypw08_r_comp-luv7vycw)">
            <path d="M148.906 20.777v1.809h14.68v-1.809Zm0 0" fill="#ffffff" data-color="1"></path>
        </g>
    </g>
</svg>